<?xml version="1.0" standalone="no"?>
<!DOCTYPE svg PUBLIC "-//W3C//DTD SVG 20010904//EN"
 "http://www.w3.org/TR/2001/REC-SVG-20010904/DTD/svg10.dtd">
<svg version="1.0" xmlns="http://www.w3.org/2000/svg"
 width="500.000000pt" height="500.000000pt" viewBox="0 0 500.000000 500.000000"
 preserveAspectRatio="xMidYMid meet">

<g transform="translate(0.000000,500.000000) scale(0.100000,-0.100000)"
fill="#000000" stroke="none">
<path d="M1753 3731 c5 -62 11 -82 37 -118 24 -32 27 -43 16 -43 -27 0 -18
-15 19 -33 19 -9 35 -21 35 -26 0 -4 -35 -10 -79 -13 -63 -4 -88 -10 -127 -33
-42 -24 -46 -29 -29 -36 32 -12 80 -10 118 6 49 20 50 20 31 -16 l-16 -31 39
30 c21 16 49 33 63 37 l24 8 -28 -37 c-133 -175 -164 -501 -69 -731 10 -25 25
-46 33 -48 15 -3 -52 -37 -75 -37 -22 0 -108 84 -147 144 -41 63 -78 168 -78
219 l0 31 41 -39 c24 -24 37 -32 33 -21 -6 16 -4 18 12 11 10 -4 31 -10 47
-13 44 -7 35 14 -28 67 -9 7 -34 15 -56 18 -21 3 -39 8 -39 11 0 3 15 22 33
41 32 34 32 35 4 17 -16 -10 -31 -15 -34 -12 -10 10 19 66 44 86 13 10 19 21
14 24 -6 4 -6 19 1 42 5 20 8 38 5 40 -2 2 -16 -6 -32 -18 -32 -25 -55 -74
-55 -117 0 -47 -18 -46 -29 1 -10 42 -10 42 -8 -19 3 -50 1 -60 -9 -52 -7 6
-16 21 -20 32 -4 12 -13 26 -20 32 -8 5 -22 28 -33 50 l-19 40 -7 -28 c-16
-63 18 -126 83 -153 l27 -11 -40 -20 c-22 -12 -49 -31 -60 -44 -11 -13 -13
-18 -5 -11 23 20 27 14 22 -41 -4 -46 -1 -57 21 -83 l25 -29 7 57 c4 31 4 61
1 67 -4 6 -2 16 3 23 6 7 19 24 30 37 l18 25 7 -62 c15 -130 79 -264 172 -356
13 -14 9 -18 -34 -40 -71 -36 -219 -139 -277 -192 l-50 -46 79 52 c173 114
405 206 640 254 125 26 339 51 372 44 11 -2 -26 -18 -81 -37 -55 -18 -124 -45
-154 -60 l-54 -28 199 -7 c109 -3 215 -10 234 -14 l35 -9 -60 -12 c-141 -29
-398 -111 -480 -155 l-40 -21 262 -3 c145 -1 381 -1 525 0 229 3 258 5 223 16
-64 20 -222 51 -336 65 -57 7 -103 17 -102 22 3 13 91 39 210 61 l98 19 -75
17 c-41 10 -148 28 -237 40 -90 12 -163 25 -163 29 0 11 139 29 305 41 153 10
169 9 266 -12 222 -47 461 -142 614 -243 l70 -47 -55 52 c-59 55 -185 141
-261 178 l-47 23 31 26 c40 33 101 129 127 197 11 30 26 89 33 132 l14 77 19
-32 c10 -18 22 -33 25 -33 3 0 4 -11 1 -25 -2 -14 -1 -46 3 -72 l7 -48 25 30
c22 25 25 35 20 82 -5 52 -5 53 16 42 l22 -12 -20 23 c-11 12 -38 31 -59 42
l-39 20 39 22 c51 28 79 83 69 134 l-7 37 -24 -47 c-13 -27 -29 -48 -34 -48
-5 0 -12 -11 -16 -25 -3 -13 -12 -29 -19 -35 -10 -8 -12 5 -9 62 3 73 1 75
-11 6 -8 -48 -25 -49 -25 -2 0 45 -25 98 -58 124 -36 29 -43 25 -27 -19 9 -28
10 -42 2 -50 -7 -7 -6 -12 6 -17 20 -7 57 -65 57 -89 0 -16 -2 -17 -17 -3 -39
33 -46 30 -14 -8 l35 -39 -42 -6 c-48 -6 -112 -53 -112 -82 0 -10 43 -5 74 8
16 7 18 5 13 -9 -4 -9 10 0 30 21 44 45 51 34 33 -52 -16 -75 -60 -160 -118
-225 -70 -79 -89 -87 -147 -64 -40 15 -44 19 -27 25 40 15 91 203 92 340 0 83
-24 221 -51 294 -11 30 -38 81 -59 113 -21 31 -37 58 -35 60 5 6 69 -29 94
-52 l24 -21 -17 33 c-19 37 -18 37 31 17 38 -16 86 -18 118 -6 17 7 13 12 -29
36 -39 23 -64 29 -128 33 -84 5 -94 15 -40 41 35 18 40 28 17 33 -12 2 -10 10
11 40 27 38 43 95 44 157 l0 35 -31 -30 c-17 -16 -42 -48 -56 -71 -14 -24 -27
-43 -29 -43 -2 0 -8 15 -14 33 -9 29 -9 28 -4 -15 5 -44 -10 -122 -27 -141 -4
-5 -10 6 -14 25 -8 33 -61 148 -70 148 -2 0 -2 -15 2 -32 6 -31 4 -31 -28 17
-25 37 -49 58 -91 79 -31 15 -62 26 -68 24 -6 -2 2 -23 19 -51 17 -26 27 -47
23 -47 -4 -1 7 -8 23 -17 50 -26 106 -74 136 -116 16 -22 27 -42 25 -45 -3 -2
-20 7 -38 21 -42 32 -116 67 -143 66 -15 0 -12 -3 11 -13 47 -21 48 -33 4 -39
-52 -7 -105 -41 -141 -90 -16 -22 -28 -41 -26 -43 1 -1 25 2 52 8 36 8 50 7
53 -1 2 -6 15 3 29 19 24 29 97 60 109 47 4 -4 -1 -18 -10 -32 l-17 -26 30 15
c31 17 81 22 81 8 0 -4 -16 -16 -35 -26 -35 -19 -49 -41 -18 -29 12 5 11 -1
-7 -24 -12 -17 -25 -51 -27 -76 -5 -40 -2 -49 25 -78 l30 -32 7 76 c4 43 11
77 16 77 5 0 9 -6 9 -14 0 -8 9 -24 19 -37 l19 -24 -9 46 c-11 49 -1 110 18
116 19 7 92 -118 119 -202 62 -193 31 -406 -77 -529 l-34 -38 -104 26 c-106
27 -146 43 -78 33 l37 -6 1 47 1 47 9 -44 c17 -85 29 -70 29 35 l0 100 -37 36
c-21 20 -65 53 -98 73 -51 31 -55 36 -27 30 26 -5 32 -3 32 10 0 30 -29 73
-65 95 -42 26 -40 38 3 16 16 -8 32 -13 34 -10 11 10 57 -58 64 -92 6 -34 7
-34 21 -14 19 27 33 17 33 -26 0 -19 4 -33 9 -29 5 3 11 -3 14 -12 3 -12 7 -7
12 15 10 41 25 29 28 -22 1 -20 6 -36 11 -36 4 0 6 -7 2 -15 -7 -18 5 -20 22
-3 18 18 14 74 -8 117 -34 68 -143 157 -265 217 -223 110 -325 111 -540 5
-181 -89 -295 -198 -295 -282 0 -76 23 -95 28 -22 1 26 7 52 12 57 7 7 10 5
10 -5 0 -25 21 -39 42 -28 12 7 18 21 18 47 l0 37 21 -25 c19 -23 20 -24 14
-3 -16 56 60 142 184 207 66 34 151 69 151 62 0 -2 -41 -28 -91 -57 -121 -71
-189 -134 -189 -176 0 -29 2 -31 33 -27 28 4 25 1 -25 -27 -32 -17 -76 -48
-98 -69 l-40 -37 2 -99 c1 -97 2 -98 7 -29 l6 70 8 -62 8 -63 41 0 c23 0 39
-2 36 -5 -2 -3 -51 -17 -107 -31 l-103 -26 -28 27 c-98 94 -145 312 -104 485
28 118 119 279 145 253 13 -13 16 -95 5 -133 l-7 -25 20 25 c11 14 21 31 21
38 0 7 4 11 9 8 5 -3 12 -38 16 -77 l7 -72 30 32 c27 29 30 37 24 78 -3 24
-16 59 -28 76 -21 29 -21 30 -2 24 14 -5 13 -2 -7 15 -14 13 -35 28 -45 35
-18 11 -17 12 8 12 15 1 39 -4 54 -9 33 -13 40 -8 18 14 -22 23 -12 30 33 21
23 -4 49 -19 69 -41 18 -19 34 -29 36 -22 3 9 15 9 48 0 25 -6 46 -9 48 -7 3
2 -4 19 -15 37 -25 44 -88 86 -140 94 -47 7 -47 19 1 40 23 10 26 13 11 14
-24 0 -140 -53 -149 -69 -4 -6 -16 -16 -27 -22 -18 -9 -19 -8 -11 8 22 40 97
116 141 141 25 15 47 33 49 41 1 7 14 29 27 49 13 20 23 38 20 40 -8 8 -81
-21 -112 -45 -18 -13 -43 -42 -55 -63 -26 -45 -43 -53 -27 -14 5 15 8 29 5 31
-7 8 -45 -62 -63 -119 -19 -61 -33 -75 -33 -34 0 14 -4 28 -10 31 -5 3 -10 30
-11 58 0 32 -3 45 -8 34 -6 -15 -12 -10 -38 30 -17 26 -44 59 -59 73 l-27 25
6 -74z m698 -669 c23 -1 45 -4 50 -8 5 -3 9 2 9 10 0 9 5 16 10 16 6 0 10 -7
10 -15 0 -10 10 -15 34 -15 26 0 36 -5 41 -20 3 -11 11 -20 16 -20 5 0 10 -8
11 -17 1 -10 4 9 8 42 5 47 8 55 15 37 5 -15 13 -21 23 -17 8 3 19 0 24 -7 12
-19 10 -281 -2 -273 -5 3 -10 1 -10 -5 0 -7 -7 -9 -16 -6 -9 3 -12 2 -9 -5 7
-10 -82 -8 -101 3 -5 3 -36 2 -69 -4 -41 -6 -66 -6 -80 2 -13 7 -36 7 -67 2
-43 -8 -47 -7 -52 12 -10 38 -7 278 4 271 6 -3 10 4 10 17 0 13 4 29 9 37 6
10 11 5 16 -18 4 -18 10 -30 13 -26 3 3 11 -4 18 -16 10 -19 12 -16 18 32 9
69 20 84 24 33 3 -40 4 -41 43 -42z"/>
<path d="M3036 2489 c-15 -12 -24 -25 -19 -30 10 -10 113 0 113 12 0 6 -55 39
-65 39 -1 0 -14 -10 -29 -21z"/>
<path d="M1874 2481 c-40 -24 -50 -41 -33 -52 9 -6 19 -2 29 10 8 10 26 24 39
31 21 11 23 10 18 -4 -4 -9 -10 -23 -14 -32 -5 -14 3 -16 65 -12 39 2 74 7 78
10 3 4 -4 21 -16 37 -20 28 -26 31 -78 31 -39 0 -67 -6 -88 -19z"/>
<path d="M1570 1895 l0 -155 25 0 c24 0 24 0 27 116 l3 116 43 -61 c23 -34 49
-61 56 -61 8 0 34 27 58 60 23 33 46 60 51 60 4 0 7 -52 7 -115 0 -108 1 -115
20 -115 19 0 20 7 20 155 0 155 0 155 -23 155 -17 0 -36 -19 -76 -75 -30 -41
-55 -75 -56 -75 -1 0 -26 34 -56 75 -40 56 -59 75 -76 75 -23 0 -23 0 -23
-155z"/>
<path d="M2066 1908 c-32 -79 -61 -149 -63 -155 -3 -8 3 -13 17 -13 17 0 27
12 43 50 l21 50 64 0 64 0 21 -50 c16 -39 26 -50 44 -50 l23 0 -19 48 c-87
217 -107 257 -132 260 -22 2 -28 -8 -83 -140z m104 36 c11 -25 20 -50 20 -55
0 -5 -20 -9 -44 -9 l-44 0 21 55 c12 30 23 55 25 55 1 0 12 -21 22 -46z"/>
<path d="M2430 1894 l0 -156 79 3 c72 4 83 7 111 34 36 35 54 93 45 151 -12
83 -69 124 -175 124 l-60 0 0 -156z m162 87 c29 -26 32 -34 32 -86 0 -52 -3
-60 -32 -86 -25 -23 -42 -29 -77 -29 l-45 0 0 115 0 115 45 0 c35 0 52 -6 77
-29z"/>
<path d="M2810 1895 c0 -148 1 -155 20 -155 18 0 20 7 20 70 l0 70 90 0 90 0
0 -70 c0 -63 2 -70 20 -70 19 0 20 7 20 155 0 147 -1 155 -20 155 -16 0 -19
-8 -22 -62 l-3 -63 -87 -3 -88 -3 0 66 c0 58 -2 65 -20 65 -19 0 -20 -7 -20
-155z"/>
<path d="M3210 1929 l0 -121 34 -34 c46 -46 101 -48 148 -5 l33 29 3 126 c4
122 3 126 -17 126 -20 0 -21 -5 -21 -109 0 -94 -3 -112 -21 -135 -26 -33 -70
-35 -99 -4 -18 19 -20 35 -20 135 0 106 -1 113 -20 113 -19 0 -20 -7 -20 -121z"/>
<path d="M1793 1360 c0 -49 2 -63 6 -40 6 34 7 35 51 35 44 0 45 -1 51 -35 4
-23 6 -9 6 40 0 41 -2 60 -4 43 -4 -32 -6 -33 -53 -33 -47 0 -49 1 -53 33 -2
17 -4 -2 -4 -43z"/>
<path d="M2012 1414 c-31 -21 -31 -87 0 -108 31 -22 60 -20 92 5 72 57 -16
157 -92 103z m94 -20 c37 -55 -25 -117 -80 -80 -30 19 -35 65 -10 90 25 25 71
20 90 -10z"/>
<path d="M2212 1360 l1 -75 6 60 6 60 22 -42 c13 -23 27 -44 32 -47 4 -3 19
15 32 39 l24 46 6 -58 6 -58 1 75 1 75 -24 -40 c-13 -22 -28 -47 -33 -55 -8
-12 -13 -9 -28 19 -11 18 -27 43 -36 55 -17 20 -17 18 -16 -54z"/>
<path d="M2440 1360 l0 -70 53 2 52 1 -45 6 c-40 5 -45 9 -45 31 0 21 6 26 40
31 l40 6 -42 2 c-39 1 -43 4 -43 25 0 22 5 25 48 29 l47 3 -52 2 -53 2 0 -70z"/>
<path d="M2619 1414 c-17 -21 -2 -44 38 -58 42 -15 48 -23 32 -42 -9 -11 -23
-14 -49 -11 -31 5 -32 4 -12 -6 31 -15 77 2 77 28 0 14 -14 26 -43 40 -53 25
-53 50 1 50 20 0 37 3 37 8 0 14 -68 7 -81 -9z"/>
<path d="M2782 1423 c26 -4 27 -7 31 -71 l3 -67 2 67 c2 64 3 67 30 71 15 2 0
4 -33 4 -33 0 -48 -2 -33 -4z"/>
<path d="M2977 1418 c-3 -7 -17 -40 -31 -73 -14 -33 -19 -50 -10 -37 12 16 27
22 54 22 27 0 42 -6 54 -22 15 -22 15 -21 2 12 -23 59 -49 110 -57 110 -4 0
-9 -6 -12 -12z m31 -33 c18 -38 15 -45 -18 -45 -16 0 -30 2 -30 4 0 13 23 66
29 66 4 0 13 -11 19 -25z"/>
<path d="M3134 1386 c14 -25 26 -57 27 -73 1 -28 1 -27 9 5 4 18 19 50 34 72
14 22 23 40 18 40 -4 0 -16 -16 -26 -35 -11 -19 -23 -35 -27 -35 -4 0 -17 16
-29 35 -31 51 -37 43 -6 -9z"/>
</g>
</svg>
