<svg version="1.1" id="Layer_1" xmlns="http://www.w3.org/2000/svg" xmlns:xlink="http://www.w3.org/1999/xlink" x="0px" y="0px"
	 width="100%" viewBox="0 0 500 500" enable-background="new 0 0 500 500" xml:space="preserve">
<path fill="#000000" opacity="1.000000" stroke="none" 
	d="
M348.000000,501.000000 
	C232.000031,501.000000 116.500053,501.000000 1.000062,501.000000 
	C1.000041,334.333405 1.000041,167.666794 1.000021,1.000151 
	C167.666550,1.000101 334.333099,1.000101 500.999756,1.000051 
	C500.999817,167.666519 500.999817,334.333038 500.999908,500.999786 
	C450.166656,501.000000 399.333344,501.000000 348.000000,501.000000 
M336.240784,369.725433 
	C337.455811,370.164520 338.670807,370.603607 339.698059,371.800903 
	C336.997955,377.397308 340.738068,379.295044 345.000275,380.898102 
	C348.148621,379.387451 350.709747,377.621338 350.178619,373.262360 
	C350.040192,372.126068 352.155151,370.785706 353.076721,369.431305 
	C354.142242,367.865295 355.993225,366.018921 355.753021,364.588135 
	C355.461060,362.849060 353.342438,361.416626 351.668549,359.206635 
	C351.096832,358.550201 350.252716,357.982178 350.005463,357.220398 
	C349.317291,355.100189 349.476349,352.410675 348.199066,350.844513 
	C346.253479,348.458801 342.842896,348.167053 341.028717,350.785889 
	C339.772888,352.598755 340.206573,355.582001 339.965546,358.460388 
	C339.965546,358.460388 339.957092,358.886047 339.198761,358.987396 
	C337.615234,359.694397 335.862213,360.165802 334.483551,361.157623 
	C331.627838,363.211914 332.467102,367.337860 336.240784,369.725433 
M149.026169,356.708435 
	C148.495056,357.512268 148.043961,358.385864 147.416641,359.105835 
	C145.990570,360.742523 143.806152,362.070740 143.154602,363.949097 
	C142.123383,366.921967 143.702942,369.195587 146.785782,370.439850 
	C147.764465,370.834839 148.383194,372.121643 149.019592,373.802246 
	C148.294632,377.905334 150.575027,380.386597 154.122330,380.783081 
	C158.422028,381.263641 160.618439,377.035553 159.723038,371.793182 
	C161.947968,369.938141 164.944580,368.639252 165.779663,366.497559 
	C167.602722,361.821899 163.460419,360.553741 159.624664,358.968323 
	C159.749130,358.130798 159.913437,357.296967 159.991318,356.455139 
	C160.372192,352.338104 157.632721,348.514008 154.276993,349.130615 
	C150.824219,349.765045 147.736603,351.392883 149.026169,356.708435 
M325.829620,158.045319 
	C330.815491,160.464966 335.765320,160.411270 341.257019,157.984070 
	C334.412262,150.484741 325.572479,150.014999 316.821838,148.695282 
	C319.103088,147.532990 321.384308,146.370697 323.135620,145.478409 
	C322.560364,143.815552 321.275818,141.564468 321.715179,141.152649 
	C328.103302,135.165054 325.103638,127.381683 326.456543,120.475220 
	C326.083740,120.253204 325.710938,120.031189 325.338135,119.809174 
	C321.632935,124.128120 317.927765,128.447067 314.349396,132.618179 
	C313.787201,131.068649 313.095428,129.161972 312.392761,127.225235 
	C311.784241,133.468231 311.220490,139.251938 310.656738,145.035645 
	C306.435638,138.307175 305.642700,130.977951 297.311646,127.240059 
	C291.907928,124.815567 287.307129,120.602501 280.147736,120.187889 
	C284.719055,125.871948 285.985840,133.124191 293.386688,136.173218 
	C296.750000,137.558868 299.237579,141.070221 302.122406,143.617325 
	C301.840942,143.936127 301.559448,144.254913 301.277985,144.573715 
	C287.994843,138.404190 287.994843,138.404190 283.791138,140.068405 
	C286.013397,141.161591 288.172791,142.223846 290.582275,143.409134 
	C274.414062,151.443512 272.833069,152.868042 271.825256,159.553482 
	C275.578369,159.145737 279.509766,158.718628 284.671021,158.157898 
	C286.348877,155.302155 289.829163,152.330292 295.506866,152.078293 
	C294.749115,154.342880 294.211365,155.949966 293.675385,157.551865 
	C296.570648,156.509506 299.119293,155.591965 302.862610,154.244308 
	C298.224060,159.144440 298.224060,159.144440 295.910400,168.765396 
	C294.372833,175.159058 296.086670,178.515381 302.148499,181.399506 
	C302.807129,177.688156 303.479706,173.898346 304.203796,169.818024 
	C306.070526,171.543488 307.686157,173.036911 310.204071,175.364304 
	C308.856079,168.859406 305.968658,163.540985 310.626404,156.986862 
	C314.146851,163.794418 317.942596,169.474640 320.151825,175.716400 
	C326.876617,194.716171 326.050140,213.066101 313.524963,229.842346 
	C311.692047,232.297363 309.582336,233.543854 306.256866,232.692123 
	C302.263306,231.669312 300.834045,229.715912 300.843506,225.402893 
	C300.858398,218.570145 303.292572,210.956894 296.804596,205.234970 
	C296.804596,205.234970 297.075623,204.922882 297.756866,204.911133 
	C298.838348,203.893250 299.919800,202.875366 301.433716,201.450455 
	C301.818665,204.803711 302.165436,207.824585 302.563293,211.290146 
	C307.277679,209.634521 308.830719,206.311600 307.769684,202.569687 
	C306.722015,198.874710 304.901520,195.105789 302.470551,192.150253 
	C294.718109,182.724899 284.492615,176.489441 273.381653,171.843323 
	C264.993042,168.335556 256.240814,164.692596 246.996490,166.285934 
	C229.991318,169.216888 215.140518,177.167145 202.203873,188.452835 
	C197.149948,192.861786 193.116745,198.357956 194.131271,205.719421 
	C194.400452,207.672653 195.993088,209.443497 196.978058,211.298096 
	C197.561340,211.051819 198.144623,210.805542 198.727905,210.559280 
	C198.727905,207.589188 198.727905,204.619095 198.727905,201.869766 
	C201.002075,203.112228 202.858917,204.126678 204.777618,205.174927 
	C197.926697,212.770020 202.032455,221.952530 201.017548,230.886322 
	C190.817322,233.719620 190.812424,233.722855 184.262802,223.796326 
	C183.535934,222.694687 182.730591,221.598007 182.255722,220.383987 
	C175.496231,203.103500 176.227875,186.064240 184.332565,169.426529 
	C186.295395,165.397141 189.002853,161.730484 191.611313,157.502502 
	C196.009750,163.558914 192.678757,168.931595 192.158493,175.545593 
	C194.504364,172.715836 196.009491,170.900253 197.579849,169.005997 
	C198.203506,173.374893 198.794235,177.513229 199.410446,181.830048 
	C208.090027,176.697754 208.212479,164.401535 199.484406,154.574951 
	C202.748856,155.549530 205.252396,156.296936 208.176331,157.169861 
	C207.432541,155.355988 206.859695,153.958984 206.114548,152.141769 
	C212.463776,152.174561 215.930008,155.593414 218.396988,160.269104 
	C222.570862,155.725250 226.279587,159.814224 230.499390,160.520752 
	C228.118027,150.340836 220.736160,146.207214 210.600998,143.968369 
	C213.806381,142.225677 216.050659,141.005508 218.294937,139.785355 
	C218.026611,139.175323 217.758286,138.565308 217.489960,137.955276 
	C211.424377,140.267456 205.358810,142.579620 199.293228,144.891800 
	C202.822937,140.892670 206.630783,137.143082 211.123871,134.608002 
	C216.930420,131.331863 217.395416,125.222481 221.668671,119.874802 
	C214.106583,121.057755 208.712921,123.163025 204.606522,127.910812 
	C203.955917,128.663071 203.463867,129.882782 202.667694,130.123764 
	C198.391205,131.418182 198.306229,131.306641 196.975555,134.122971 
	C195.431717,137.390411 194.006516,140.713943 192.529831,144.013123 
	C192.135040,144.076370 191.740250,144.139618 191.345459,144.202866 
	C190.688583,138.877014 190.031708,133.551178 189.298889,127.609566 
	C188.509338,129.515152 187.937744,130.894684 187.400116,132.192276 
	C183.681931,128.067963 180.032791,124.020218 176.383636,119.972488 
	C175.719025,120.341331 175.054413,120.710182 174.389786,121.079025 
	C176.121109,128.560394 177.852432,136.041779 179.665909,143.878189 
	C179.597519,143.921326 178.555267,144.578781 177.567078,145.202118 
	C180.172546,146.574310 182.539459,147.820847 184.906357,149.067398 
	C175.742340,149.845642 167.271393,150.584610 161.256271,157.781677 
	C161.388855,158.407104 161.521439,159.032532 161.654022,159.657959 
	C167.000656,159.250824 172.347290,158.843704 177.510315,158.450546 
	C177.309128,159.627655 177.055344,161.112518 176.742538,162.942719 
	C179.841187,160.762833 182.499771,158.892532 185.158356,157.022217 
	C169.922287,183.393692 169.280807,209.850021 181.208923,237.268250 
	C179.372711,238.006516 177.420593,238.791397 175.424179,239.594086 
	C162.877457,230.868866 155.736404,219.182236 153.823730,204.493088 
	C154.209091,204.269135 154.594437,204.045197 154.979797,203.821243 
	C157.041351,205.676514 159.102905,207.531769 161.080917,209.311859 
	C161.122696,208.718170 161.187546,207.796799 161.252838,206.868927 
	C164.090210,207.228653 166.848206,207.578323 170.146652,207.996506 
	C168.325104,199.306015 161.720413,198.077209 153.912003,196.284149 
	C157.334122,193.233017 159.571411,191.238266 161.808701,189.243530 
	C161.721130,189.072983 161.633545,188.902451 161.545975,188.731903 
	C159.506256,189.549896 157.466553,190.367905 155.426834,191.185898 
	C155.143097,190.967239 154.859360,190.748566 154.575623,190.529907 
	C156.829941,187.748566 159.084244,184.967224 160.367813,183.383575 
	C160.999557,178.975739 161.468124,175.706421 162.017426,171.873734 
	C154.011780,174.434738 152.080582,181.085861 149.991241,187.993011 
	C149.535812,184.419037 149.080399,180.845062 148.624969,177.271088 
	C148.339325,177.236664 148.053680,177.202225 147.768036,177.167801 
	C147.384277,181.367966 147.000519,185.568130 146.643356,189.477188 
	C145.098618,187.815247 143.310944,186.280594 142.024429,184.402634 
	C140.632187,182.370331 139.707581,180.017670 138.451599,177.554855 
	C134.090225,186.604935 135.818069,191.329727 145.320175,197.522659 
	C142.585693,199.818253 139.688156,201.982010 137.128784,204.490753 
	C135.325500,206.258362 135.992020,207.155914 138.759811,206.801041 
	C138.759811,206.801041 139.084625,207.066986 139.028625,207.931595 
	C138.961639,216.154526 140.276428,218.626846 145.445831,220.278259 
	C146.460815,214.377640 147.481216,208.445602 148.501617,202.513550 
	C149.068832,202.467422 149.636047,202.421280 150.203262,202.375153 
	C151.548172,217.964111 157.306763,231.484955 168.360001,242.289230 
	C161.657410,246.496353 155.018356,250.252106 148.842957,254.657791 
	C142.901321,258.896698 137.439301,263.807953 131.766541,268.423767 
	C132.129944,268.972260 132.493347,269.520752 132.856750,270.069244 
	C163.748550,247.145477 199.085007,237.750977 236.773819,235.456207 
	C228.702454,238.770569 220.631104,242.084946 212.559753,245.399307 
	C212.698044,245.817871 212.836334,246.236435 212.974625,246.654999 
	C227.232117,247.513290 241.489609,248.371582 256.846130,249.296051 
	C249.583633,251.070770 243.328964,252.393600 237.199890,254.153778 
	C230.854340,255.976151 224.570450,258.058563 218.371078,260.331329 
	C212.556717,262.462952 206.888153,264.992218 201.155441,267.346527 
	C201.330521,267.726929 201.505600,268.107330 201.680679,268.487732 
	C236.282303,268.487732 270.883911,268.487732 305.485565,268.487732 
	C305.573761,267.845947 305.661926,267.204132 305.750122,266.562347 
	C290.301117,263.747528 274.852081,260.932709 258.248596,257.907562 
	C269.245514,255.478500 279.266022,253.265137 289.286530,251.051758 
	C289.355347,250.478058 289.424164,249.904343 289.492981,249.330643 
	C275.002319,246.855438 260.511658,244.380234 246.021011,241.905029 
	C267.131134,238.852890 287.924652,235.557159 309.070923,241.803467 
	C329.478271,247.831482 348.712158,256.038422 366.712189,267.429932 
	C357.851044,256.034576 345.378387,249.608780 333.299622,242.327606 
	C344.930176,231.191620 350.329559,217.599792 351.572235,202.069733 
	C352.144165,202.098465 352.716095,202.127197 353.288025,202.155930 
	C354.365479,208.293564 355.442963,214.431198 356.591949,220.976227 
	C363.081940,217.377579 363.936737,212.053970 362.124390,205.710983 
	C363.523651,206.122635 364.504639,206.411240 365.485596,206.699829 
	C365.730255,206.323990 365.974884,205.948151 366.219543,205.572296 
	C363.064209,202.887299 359.908905,200.202286 356.803772,197.559998 
	C365.494598,191.517120 367.831604,184.374893 362.970856,177.604233 
	C361.896454,179.928391 361.100616,182.279144 359.793030,184.298508 
	C358.528717,186.250977 356.737305,187.862152 355.346863,189.431931 
	C354.965637,185.889709 354.560791,182.127777 354.155945,178.365845 
	C353.882050,178.416382 353.608185,178.466934 353.334290,178.517471 
	C352.804535,181.625381 352.274780,184.733307 351.630707,188.512070 
	C347.745453,175.543457 345.649994,172.862274 339.710999,172.589890 
	C340.182770,175.890762 340.661377,179.239487 341.112427,182.395584 
	C342.740479,184.863724 344.412079,187.397903 345.757965,190.197235 
	C345.757965,190.197235 345.454468,190.487610 344.811676,190.234589 
	C343.299286,189.748810 341.786865,189.263016 340.274475,188.777237 
	C340.881592,190.705200 342.116760,191.674210 343.233765,192.764343 
	C344.381104,193.884079 345.412933,195.122147 346.603058,196.426498 
	C333.473541,201.438141 332.725861,202.041611 332.626678,207.931183 
	C335.315521,207.536438 337.952728,207.149261 340.601990,206.760330 
	C340.601990,207.942078 340.601990,208.796738 340.601990,210.329498 
	C342.930084,207.512238 344.816498,205.229416 347.441040,202.053421 
	C347.723083,204.325134 348.063629,205.280960 347.916840,206.154907 
	C345.866333,218.361313 339.834747,228.322342 330.774170,236.621475 
	C327.280670,239.821381 323.997589,239.571365 320.797760,237.066544 
	C332.873535,209.197678 331.588898,182.584702 314.748505,155.501312 
	C318.743774,158.286301 321.615784,160.288269 324.974121,162.629242 
	C324.790009,161.008423 324.649933,159.775497 324.801025,158.240173 
	C324.801025,158.240173 325.066956,157.915344 325.829620,158.045319 
M181.071411,299.404877 
	C178.632416,302.787384 176.193420,306.169922 174.190628,308.947479 
	C167.563873,306.062775 168.028656,295.604614 158.375565,296.022736 
	C158.375565,306.525818 158.375565,316.565674 158.375565,326.490692 
	C161.682343,327.552673 163.111313,326.737305 163.031754,323.407318 
	C162.894882,317.678894 162.993896,311.944794 162.993896,304.872467 
	C165.613831,308.505463 167.383667,311.026062 169.223282,313.494659 
	C171.841461,317.008026 175.156479,316.993256 177.791885,313.484894 
	C179.514542,311.191620 181.207489,308.875977 182.913742,306.570374 
	C183.283768,306.685852 183.653793,306.801361 184.023819,306.916840 
	C184.023819,313.447937 184.023819,319.979034 184.023819,328.155884 
	C186.452057,326.622803 188.749039,325.867767 188.770447,325.052979 
	C189.021790,315.485657 188.931763,305.909332 188.931763,296.335419 
	C188.451782,295.968872 187.971817,295.602356 187.491837,295.235809 
	C185.518097,296.433502 183.544357,297.631165 181.071411,299.404877 
M243.000000,319.411438 
	C243.000000,321.816620 243.000000,324.221771 243.000000,327.000000 
	C247.008972,327.000000 250.149292,327.129425 253.273560,326.961151 
	C256.015259,326.813446 259.161621,327.095581 261.394409,325.860016 
	C269.286957,321.492493 270.846619,307.073608 264.877319,300.280487 
	C258.609680,293.147888 250.822464,296.987213 243.000000,296.006165 
	C243.000000,303.922028 243.000000,311.178894 243.000000,319.411438 
M287.000977,303.399200 
	C287.000977,301.121552 287.000977,298.843903 287.000977,296.489197 
	C284.682220,296.489197 283.007568,296.489197 281.390808,296.489197 
	C281.390808,306.837372 281.390808,316.726501 281.390808,326.975067 
	C283.375549,326.862885 284.947968,326.774017 287.084106,326.653290 
	C287.084106,322.042816 287.084106,317.803925 287.084106,313.476868 
	C292.688690,313.476868 297.695282,313.476868 303.029297,313.476868 
	C303.029297,317.432281 302.878235,320.923798 303.132568,324.385498 
	C303.198425,325.282166 304.533997,326.085571 305.286346,326.931793 
	C306.182281,326.061981 307.838684,325.207764 307.856934,324.319885 
	C308.047058,315.062897 307.974121,305.800507 307.974121,296.286255 
	C306.256805,296.286255 304.216278,296.099243 304.173035,296.314056 
	C303.419739,300.058014 302.911377,303.851257 302.297180,307.986969 
	C298.171112,307.986969 294.199890,307.879547 290.237793,308.023468 
	C287.435699,308.125244 286.815338,306.656586 287.000977,303.399200 
M217.342545,318.000336 
	C220.896362,317.395325 222.899048,318.904694 223.770889,322.386169 
	C224.747009,326.284119 226.893341,328.424469 231.545868,326.313721 
	C227.653473,316.873047 223.833878,307.401733 219.825439,298.010986 
	C218.594543,295.127319 213.489532,294.966064 212.148544,297.941864 
	C207.920639,307.323883 204.077744,316.879395 200.085831,326.367737 
	C200.534851,326.867676 200.983856,327.367615 201.432877,327.867554 
	C203.466629,326.543915 206.801285,325.581970 207.288818,323.828400 
	C208.719330,318.683167 211.698456,317.275970 217.342545,318.000336 
M321.948914,320.179138 
	C324.731201,325.774170 328.734802,328.400146 333.833099,327.973999 
	C338.894104,327.550964 343.053375,324.586914 343.979858,318.722717 
	C345.124908,311.475311 344.933563,304.016815 345.329224,296.466278 
	C342.720032,296.466278 341.045593,296.466278 338.995209,296.466278 
	C338.995209,302.856506 339.013000,308.818939 338.989136,314.781219 
	C338.972443,318.957092 337.138123,321.879486 332.814758,322.405060 
	C329.771698,322.774963 327.027069,318.928558 327.007721,314.673981 
	C326.980103,308.583832 327.000702,302.493500 327.000702,296.028076 
	C324.655151,296.139404 323.083923,296.213989 320.695496,296.327332 
	C321.054840,304.273712 321.396179,311.821655 321.948914,320.179138 
M198.404007,250.000076 
	C192.131546,249.926193 186.454025,251.073456 182.736526,257.570953 
	C184.430954,258.498627 185.790680,259.243042 187.024887,259.918762 
	C188.459503,258.046173 189.630905,256.517120 190.802322,254.988083 
	C191.127457,255.183762 191.452606,255.379425 191.777740,255.575104 
	C191.677063,256.929138 191.576370,258.283142 191.428970,260.265350 
	C197.124542,259.708984 202.411621,259.192535 208.836700,258.564911 
	C205.784012,254.489960 205.334503,249.372711 198.404007,250.000076 
M234.769058,364.210052 
	C234.994247,366.652100 235.219437,369.094147 235.444626,371.536224 
	C235.776993,371.496033 236.109375,371.455841 236.441742,371.415649 
	C236.441742,366.721924 236.441742,362.028198 236.441742,357.334503 
	C236.079086,357.224487 235.716446,357.114502 235.353790,357.004486 
	C233.368027,360.139709 231.382278,363.274902 229.279343,366.595123 
	C227.049438,363.226013 224.860840,359.919312 222.672256,356.612579 
	C220.166931,365.333130 220.736847,370.176392 223.643082,371.900818 
	C223.853928,369.511353 224.046066,367.333954 224.310440,364.337891 
	C226.148376,366.967407 227.510239,368.915802 229.168152,371.287750 
	C230.998154,368.687622 232.574005,366.448578 234.769058,364.210052 
M199.868500,360.717010 
	C199.600388,362.628204 198.961334,364.574493 199.138153,366.443604 
	C199.560196,370.904816 203.025452,372.562836 206.764938,372.623657 
	C210.617401,372.686279 213.639496,370.516022 214.687866,366.494659 
	C215.641678,362.835968 214.302094,359.910156 211.091583,358.101776 
	C207.075668,355.839752 203.477432,356.885406 199.868500,360.717010 
M295.144562,365.550232 
	C294.263763,367.536865 293.382935,369.523529 292.502136,371.510193 
	C297.694305,367.384003 302.486145,368.239227 307.687988,371.270996 
	C305.414795,366.403931 303.141632,361.536835 300.518066,355.919525 
	C299.013763,357.782043 298.367188,358.335815 298.037354,359.038300 
	C297.133087,360.964050 296.362000,362.952301 295.144562,365.550232 
M263.599426,357.813934 
	C260.477325,361.097168 260.477325,361.097168 269.736725,369.299133 
	C266.915680,369.441956 264.094635,369.584808 261.273590,369.727631 
	C262.756042,371.433594 264.697937,373.072510 266.063812,372.684326 
	C268.432129,372.011414 270.443939,370.083801 272.605255,368.682404 
	C271.260040,367.127167 270.102814,365.329834 268.510132,364.093353 
	C267.237885,363.105652 265.435577,362.800690 263.868561,362.192657 
	C263.912750,361.566437 263.956940,360.940186 264.001129,360.313934 
	C266.527283,359.986328 269.053406,359.658722 271.579559,359.331116 
	C271.622345,358.867981 271.665131,358.404816 271.707916,357.941681 
	C269.222137,357.752869 266.736328,357.564087 263.599426,357.813934 
M186.440186,366.005585 
	C191.684647,364.710907 188.562683,371.116180 192.250946,372.033936 
	C192.250946,366.892883 192.250946,362.054749 192.250946,357.216614 
	C191.736023,357.162018 191.221100,357.107422 190.706177,357.052826 
	C190.289001,359.264923 189.871841,361.477051 189.468002,363.618530 
	C186.894379,363.618530 184.653702,363.618530 182.472336,363.618530 
	C182.086334,361.300049 181.762756,359.356537 181.439178,357.413025 
	C181.157074,357.469666 180.874954,357.526306 180.592834,357.582947 
	C180.592834,362.217560 180.592834,366.852173 180.592834,372.508179 
	C182.726608,369.705841 180.768494,365.130096 186.440186,366.005585 
M245.019897,369.196533 
	C246.495575,372.448212 250.312515,373.066467 255.482651,370.396942 
	C253.471176,369.962646 251.400299,370.148224 249.392593,369.873016 
	C248.567596,369.759949 247.878693,368.653961 247.127853,367.999603 
	C247.877304,367.344330 248.528320,366.389252 249.399078,366.103302 
	C250.738937,365.663300 252.229599,365.682526 253.656281,365.506897 
	C252.565643,364.283295 251.531693,364.333984 250.688690,363.957306 
	C249.431702,363.395721 248.309387,362.532684 247.129761,361.797913 
	C248.280289,361.199738 249.376175,360.421692 250.595856,360.051056 
	C251.976105,359.631622 253.467422,359.577728 254.910446,359.364899 
	C254.876312,358.829803 254.842194,358.294678 254.808060,357.759583 
	C251.680542,357.759583 248.553024,357.759583 245.004395,357.759583 
	C245.004395,361.326569 245.004395,364.795013 245.019897,369.196533 
M316.217957,370.985535 
	C317.025726,371.057648 318.450623,371.394623 318.550140,371.162811 
	C320.505798,366.605988 322.307434,361.983063 324.140503,357.373627 
	C323.883728,357.146057 323.626953,356.918518 323.370178,356.690948 
	C321.485901,358.987762 319.601654,361.284576 317.669861,363.639282 
	C315.801086,361.167206 314.132782,358.960327 312.464478,356.753448 
	C312.133728,357.031250 311.802979,357.309052 311.472260,357.586853 
	C313.002350,361.793823 314.532440,366.000763 316.217957,370.985535 
M313.868042,252.512512 
	C310.535370,250.401932 307.123718,248.743027 303.537354,251.875687 
	C302.810913,252.510223 302.211975,253.713882 302.229523,254.642410 
	C302.243439,255.378387 303.377319,256.773712 303.864899,256.711334 
	C307.399475,256.259094 310.899628,255.527115 314.389313,254.783417 
	C314.501770,254.759460 314.384430,253.657272 313.868042,252.512512 
M283.828857,370.735779 
	C283.828857,367.302765 283.828857,363.869751 283.828857,360.906769 
	C286.158844,360.015930 287.596588,359.466217 289.034332,358.916504 
	C288.907410,358.558777 288.780457,358.201080 288.653534,357.843353 
	C284.839691,357.843353 281.025879,357.843353 277.212036,357.843353 
	C277.170746,358.261139 277.129425,358.678955 277.088135,359.096741 
	C278.649628,359.665558 280.211121,360.234406 281.214569,360.599945 
	C282.009033,364.524231 282.710175,367.987427 283.828857,370.735779 
M369.162933,269.737396 
	C369.156921,269.518982 369.181946,269.291931 369.125153,269.087677 
	C369.108978,269.029724 368.854279,269.038116 368.709015,269.016083 
	C368.713013,269.249969 368.717041,269.483856 369.162933,269.737396 
z"/>
<path fill="#008037" opacity="1.000000" stroke="none" 
	d="
M296.500549,205.531143 
	C303.292572,210.956894 300.858398,218.570145 300.843506,225.402893 
	C300.834045,229.715912 302.263306,231.669312 306.256866,232.692123 
	C309.582336,233.543854 311.692047,232.297363 313.524963,229.842346 
	C326.050140,213.066101 326.876617,194.716171 320.151825,175.716400 
	C317.942596,169.474640 314.146851,163.794418 310.626404,156.986862 
	C305.968658,163.540985 308.856079,168.859406 310.204071,175.364304 
	C307.686157,173.036911 306.070526,171.543488 304.203796,169.818024 
	C303.479706,173.898346 302.807129,177.688156 302.148499,181.399506 
	C296.086670,178.515381 294.372833,175.159058 295.910400,168.765396 
	C298.224060,159.144440 298.224060,159.144440 302.862610,154.244308 
	C299.119293,155.591965 296.570648,156.509506 293.675385,157.551865 
	C294.211365,155.949966 294.749115,154.342880 295.506866,152.078293 
	C289.829163,152.330292 286.348877,155.302155 284.671021,158.157898 
	C279.509766,158.718628 275.578369,159.145737 271.825256,159.553482 
	C272.833069,152.868042 274.414062,151.443512 290.582275,143.409134 
	C288.172791,142.223846 286.013397,141.161591 283.791138,140.068405 
	C287.994843,138.404190 287.994843,138.404190 301.277985,144.573715 
	C301.559448,144.254913 301.840942,143.936127 302.122406,143.617325 
	C299.237579,141.070221 296.750000,137.558868 293.386688,136.173218 
	C285.985840,133.124191 284.719055,125.871948 280.147736,120.187889 
	C287.307129,120.602501 291.907928,124.815567 297.311646,127.240059 
	C305.642700,130.977951 306.435638,138.307175 310.656738,145.035645 
	C311.220490,139.251938 311.784241,133.468231 312.392761,127.225235 
	C313.095428,129.161972 313.787201,131.068649 314.349396,132.618179 
	C317.927765,128.447067 321.632935,124.128120 325.338135,119.809174 
	C325.710938,120.031189 326.083740,120.253204 326.456543,120.475220 
	C325.103638,127.381683 328.103302,135.165054 321.715179,141.152649 
	C321.275818,141.564468 322.560364,143.815552 323.135620,145.478409 
	C321.384308,146.370697 319.103088,147.532990 316.821838,148.695282 
	C325.572479,150.014999 334.412262,150.484741 341.257019,157.984070 
	C335.765320,160.411270 330.815491,160.464966 325.317688,157.768250 
	C324.387390,157.506119 323.969055,157.521057 323.550690,157.535980 
	C323.870422,157.871521 324.190155,158.207062 324.509888,158.542587 
	C324.649933,159.775497 324.790009,161.008423 324.974121,162.629242 
	C321.615784,160.288269 318.743774,158.286301 314.748505,155.501312 
	C331.588898,182.584702 332.873535,209.197678 320.797760,237.066544 
	C323.997589,239.571365 327.280670,239.821381 330.774170,236.621475 
	C339.834747,228.322342 345.866333,218.361313 347.916840,206.154907 
	C348.063629,205.280960 347.723083,204.325134 347.441040,202.053421 
	C344.816498,205.229416 342.930084,207.512238 340.601990,210.329498 
	C340.601990,208.796738 340.601990,207.942078 340.601990,206.760330 
	C337.952728,207.149261 335.315521,207.536438 332.626678,207.931183 
	C332.725861,202.041611 333.473541,201.438141 346.603058,196.426498 
	C345.412933,195.122147 344.381104,193.884079 343.233765,192.764343 
	C342.116760,191.674210 340.881592,190.705200 340.274475,188.777237 
	C341.786865,189.263016 343.299286,189.748810 345.253784,190.559692 
	C346.053040,190.949081 346.410156,191.013382 346.767273,191.077698 
	C346.539429,190.695816 346.311584,190.313950 346.083740,189.932098 
	C344.412079,187.397903 342.740479,184.863724 341.112427,182.395584 
	C340.661377,179.239487 340.182770,175.890762 339.710999,172.589890 
	C345.649994,172.862274 347.745453,175.543457 351.630707,188.512070 
	C352.274780,184.733307 352.804535,181.625381 353.334290,178.517471 
	C353.608185,178.466934 353.882050,178.416382 354.155945,178.365845 
	C354.560791,182.127777 354.965637,185.889709 355.346863,189.431931 
	C356.737305,187.862152 358.528717,186.250977 359.793030,184.298508 
	C361.100616,182.279144 361.896454,179.928391 362.970856,177.604233 
	C367.831604,184.374893 365.494598,191.517120 356.803772,197.559998 
	C359.908905,200.202286 363.064209,202.887299 366.219543,205.572296 
	C365.974884,205.948151 365.730255,206.323990 365.485596,206.699829 
	C364.504639,206.411240 363.523651,206.122635 362.124390,205.710983 
	C363.936737,212.053970 363.081940,217.377579 356.591949,220.976227 
	C355.442963,214.431198 354.365479,208.293564 353.288025,202.155930 
	C352.716095,202.127197 352.144165,202.098465 351.572235,202.069733 
	C350.329559,217.599792 344.930176,231.191620 333.299622,242.327606 
	C345.378387,249.608780 357.851044,256.034576 366.712189,267.429932 
	C348.712158,256.038422 329.478271,247.831482 309.070923,241.803467 
	C287.924652,235.557159 267.131134,238.852890 246.021011,241.905029 
	C260.511658,244.380234 275.002319,246.855438 289.492981,249.330643 
	C289.424164,249.904343 289.355347,250.478058 289.286530,251.051758 
	C279.266022,253.265137 269.245514,255.478500 258.248596,257.907562 
	C274.852081,260.932709 290.301117,263.747528 305.750122,266.562347 
	C305.661926,267.204132 305.573761,267.845947 305.485565,268.487732 
	C270.883911,268.487732 236.282303,268.487732 201.680679,268.487732 
	C201.505600,268.107330 201.330521,267.726929 201.155441,267.346527 
	C206.888153,264.992218 212.556717,262.462952 218.371078,260.331329 
	C224.570450,258.058563 230.854340,255.976151 237.199890,254.153778 
	C243.328964,252.393600 249.583633,251.070770 256.846130,249.296051 
	C241.489609,248.371582 227.232117,247.513290 212.974625,246.654999 
	C212.836334,246.236435 212.698044,245.817871 212.559753,245.399307 
	C220.631104,242.084946 228.702454,238.770569 236.773819,235.456207 
	C199.085007,237.750977 163.748550,247.145477 132.856750,270.069244 
	C132.493347,269.520752 132.129944,268.972260 131.766541,268.423767 
	C137.439301,263.807953 142.901321,258.896698 148.842957,254.657791 
	C155.018356,250.252106 161.657410,246.496353 168.360001,242.289230 
	C157.306763,231.484955 151.548172,217.964111 150.203262,202.375153 
	C149.636047,202.421280 149.068832,202.467422 148.501617,202.513550 
	C147.481216,208.445602 146.460815,214.377640 145.445831,220.278259 
	C140.276428,218.626846 138.961639,216.154526 139.268723,207.368683 
	C139.493912,206.387405 139.478989,205.969055 139.464081,205.550705 
	C139.128540,205.870407 138.792999,206.190094 138.457458,206.509796 
	C135.992020,207.155914 135.325500,206.258362 137.128784,204.490753 
	C139.688156,201.982010 142.585693,199.818253 145.320175,197.522659 
	C135.818069,191.329727 134.090225,186.604935 138.451599,177.554855 
	C139.707581,180.017670 140.632187,182.370331 142.024429,184.402634 
	C143.310944,186.280594 145.098618,187.815247 146.643356,189.477188 
	C147.000519,185.568130 147.384277,181.367966 147.768036,177.167801 
	C148.053680,177.202225 148.339325,177.236664 148.624969,177.271088 
	C149.080399,180.845062 149.535812,184.419037 149.991241,187.993011 
	C152.080582,181.085861 154.011780,174.434738 162.017426,171.873734 
	C161.468124,175.706421 160.999557,178.975739 160.367813,183.383575 
	C159.084244,184.967224 156.829941,187.748566 154.575623,190.529907 
	C154.859360,190.748566 155.143097,190.967239 155.426834,191.185898 
	C157.466553,190.367905 159.506256,189.549896 161.545975,188.731903 
	C161.633545,188.902451 161.721130,189.072983 161.808701,189.243530 
	C159.571411,191.238266 157.334122,193.233017 153.912003,196.284149 
	C161.720413,198.077209 168.325104,199.306015 170.146652,207.996506 
	C166.848206,207.578323 164.090210,207.228653 161.252838,206.868927 
	C161.187546,207.796799 161.122696,208.718170 161.080917,209.311859 
	C159.102905,207.531769 157.041351,205.676514 154.979797,203.821243 
	C154.594437,204.045197 154.209091,204.269135 153.823730,204.493088 
	C155.736404,219.182236 162.877457,230.868866 175.424179,239.594086 
	C177.420593,238.791397 179.372711,238.006516 181.208923,237.268250 
	C169.280807,209.850021 169.922287,183.393692 185.158356,157.022217 
	C182.499771,158.892532 179.841187,160.762833 176.742538,162.942719 
	C177.055344,161.112518 177.309128,159.627655 177.510315,158.450546 
	C172.347290,158.843704 167.000656,159.250824 161.654022,159.657959 
	C161.521439,159.032532 161.388855,158.407104 161.256271,157.781677 
	C167.271393,150.584610 175.742340,149.845642 184.906357,149.067398 
	C182.539459,147.820847 180.172546,146.574310 177.567078,145.202118 
	C178.555267,144.578781 179.597519,143.921326 179.665909,143.878189 
	C177.852432,136.041779 176.121109,128.560394 174.389786,121.079025 
	C175.054413,120.710182 175.719025,120.341331 176.383636,119.972488 
	C180.032791,124.020218 183.681931,128.067963 187.400116,132.192276 
	C187.937744,130.894684 188.509338,129.515152 189.298889,127.609566 
	C190.031708,133.551178 190.688583,138.877014 191.345459,144.202866 
	C191.740250,144.139618 192.135040,144.076370 192.529831,144.013123 
	C194.006516,140.713943 195.431717,137.390411 196.975555,134.122971 
	C198.306229,131.306641 198.391205,131.418182 202.667694,130.123764 
	C203.463867,129.882782 203.955917,128.663071 204.606522,127.910812 
	C208.712921,123.163025 214.106583,121.057755 221.668671,119.874802 
	C217.395416,125.222481 216.930420,131.331863 211.123871,134.608002 
	C206.630783,137.143082 202.822937,140.892670 199.293228,144.891800 
	C205.358810,142.579620 211.424377,140.267456 217.489960,137.955276 
	C217.758286,138.565308 218.026611,139.175323 218.294937,139.785355 
	C216.050659,141.005508 213.806381,142.225677 210.600998,143.968369 
	C220.736160,146.207214 228.118027,150.340836 230.499390,160.520752 
	C226.279587,159.814224 222.570862,155.725250 218.396988,160.269104 
	C215.930008,155.593414 212.463776,152.174561 206.114548,152.141769 
	C206.859695,153.958984 207.432541,155.355988 208.176331,157.169861 
	C205.252396,156.296936 202.748856,155.549530 199.484406,154.574951 
	C208.212479,164.401535 208.090027,176.697754 199.410446,181.830048 
	C198.794235,177.513229 198.203506,173.374893 197.579849,169.005997 
	C196.009491,170.900253 194.504364,172.715836 192.158493,175.545593 
	C192.678757,168.931595 196.009750,163.558914 191.611313,157.502502 
	C189.002853,161.730484 186.295395,165.397141 184.332565,169.426529 
	C176.227875,186.064240 175.496231,203.103500 182.255722,220.383987 
	C182.730591,221.598007 183.535934,222.694687 184.262802,223.796326 
	C190.812424,233.722855 190.817322,233.719620 201.017548,230.886322 
	C202.032455,221.952530 197.926697,212.770020 204.777618,205.174927 
	C202.858917,204.126678 201.002075,203.112228 198.727905,201.869766 
	C198.727905,204.619095 198.727905,207.589188 198.727905,210.559280 
	C198.144623,210.805542 197.561340,211.051819 196.978058,211.298096 
	C195.993088,209.443497 194.400452,207.672653 194.131271,205.719421 
	C193.116745,198.357956 197.149948,192.861786 202.203873,188.452835 
	C215.140518,177.167145 229.991318,169.216888 246.996490,166.285934 
	C256.240814,164.692596 264.993042,168.335556 273.381653,171.843323 
	C284.492615,176.489441 294.718109,182.724899 302.470551,192.150253 
	C304.901520,195.105789 306.722015,198.874710 307.769684,202.569687 
	C308.830719,206.311600 307.277679,209.634521 302.563293,211.290146 
	C302.165436,207.824585 301.818665,204.803711 301.433716,201.450455 
	C299.919800,202.875366 298.838348,203.893250 297.354767,204.544647 
	C296.387512,202.010834 295.822357,199.843491 295.212189,197.503479 
	C293.588104,197.864700 292.241547,198.164185 291.490051,198.331329 
	C289.685089,194.747025 288.115326,191.629700 286.424805,188.313812 
	C285.946960,188.050919 285.589844,187.986618 285.232727,187.922302 
	C285.460571,188.304169 285.688446,188.686035 285.977844,189.437012 
	C287.549347,195.948395 288.990082,202.133194 295.665588,205.008118 
	C295.963715,205.136520 296.223114,205.354752 296.500549,205.531143 
M249.740936,196.054581 
	C247.364853,196.054581 244.988754,196.054581 242.409760,196.054581 
	C242.015213,195.037796 241.433121,193.537704 240.326752,190.686417 
	C240.003616,194.779160 239.807388,197.264526 239.495956,201.209213 
	C236.633194,197.792908 234.817932,195.626617 233.313965,193.831848 
	C232.662064,195.870209 231.273987,198.417847 231.124939,201.036026 
	C230.775330,207.177490 230.785919,213.367828 231.183929,219.503784 
	C231.284897,221.060608 233.201294,223.543228 234.596527,223.783585 
	C239.449417,224.619659 244.438995,224.878189 249.378250,224.895889 
	C251.490372,224.903473 254.073349,222.700439 255.629807,223.375473 
	C259.647949,225.118118 263.285583,224.934174 266.859436,222.997101 
	C268.479309,222.119110 270.690277,220.454041 270.803192,219.003525 
	C271.254303,213.210251 271.004242,207.360916 270.977661,201.532486 
	C270.963165,198.347778 269.891663,196.116974 266.373077,196.496841 
	C265.899719,199.035782 265.438141,201.511536 264.976562,203.987274 
	C262.184601,196.964035 256.182343,196.775467 249.740936,196.054581 
M219.844330,183.728363 
	C217.297089,185.684982 214.080124,187.193863 212.389267,189.723022 
	C210.667191,192.298859 210.446930,195.878738 209.544678,199.106369 
	C209.249908,199.022675 208.065887,198.686493 206.973068,198.376190 
	C206.742218,200.302414 206.544250,201.954330 206.172012,205.060410 
	C209.498810,202.075378 214.082367,199.686600 213.875732,197.831360 
	C213.201416,191.777130 216.131927,188.121674 219.844330,183.728363 
M203.959335,224.947952 
	C203.857376,224.662918 203.765411,224.373444 203.642715,224.097626 
	C203.624252,224.056091 203.462280,224.078384 203.366699,224.071152 
	C203.304077,225.024857 203.241470,225.978561 203.178864,226.932251 
	C203.381714,226.924789 203.584579,226.917313 203.787430,226.909836 
	C203.851303,226.457535 203.915192,226.005249 203.959335,224.947952 
M226.422745,178.279419 
	C225.815125,178.679428 225.207520,179.079453 224.599899,179.479462 
	C224.847641,179.736252 225.095383,179.993042 225.343124,180.249832 
	C225.889206,179.592850 226.435287,178.935852 226.422745,178.279419 
M222.803055,181.682816 
	C222.289993,181.723160 221.776932,181.763504 221.263870,181.803848 
	C221.347504,182.063156 221.443954,182.548569 221.512650,182.544693 
	C221.922668,182.521393 222.326263,182.385254 222.803055,181.682816 
M204.590454,229.468155 
	C205.129227,229.608246 205.667999,229.748337 206.206772,229.888428 
	C206.244827,229.717957 206.282883,229.547470 206.320953,229.376999 
	C205.872772,229.306366 205.424606,229.235733 204.590454,229.468155 
z"/>
<path fill="#2D4C74" opacity="1.000000" stroke="none" 
	d="
M181.321014,299.116852 
	C183.544357,297.631165 185.518097,296.433502 187.491837,295.235809 
	C187.971817,295.602356 188.451782,295.968872 188.931763,296.335419 
	C188.931763,305.909332 189.021790,315.485657 188.770447,325.052979 
	C188.749039,325.867767 186.452057,326.622803 184.023819,328.155884 
	C184.023819,319.979034 184.023819,313.447937 184.023819,306.916840 
	C183.653793,306.801361 183.283768,306.685852 182.913742,306.570374 
	C181.207489,308.875977 179.514542,311.191620 177.791885,313.484894 
	C175.156479,316.993256 171.841461,317.008026 169.223282,313.494659 
	C167.383667,311.026062 165.613831,308.505463 162.993896,304.872467 
	C162.993896,311.944794 162.894882,317.678894 163.031754,323.407318 
	C163.111313,326.737305 161.682343,327.552673 158.375565,326.490692 
	C158.375565,316.565674 158.375565,306.525818 158.375565,296.022736 
	C168.028656,295.604614 167.563873,306.062775 174.190628,308.947479 
	C176.193420,306.169922 178.632416,302.787384 181.321014,299.116852 
z"/>
<path fill="#2D4C74" opacity="1.000000" stroke="none" 
	d="
M243.000000,318.923584 
	C243.000000,311.178894 243.000000,303.922028 243.000000,296.006165 
	C250.822464,296.987213 258.609680,293.147888 264.877319,300.280487 
	C270.846619,307.073608 269.286957,321.492493 261.394409,325.860016 
	C259.161621,327.095581 256.015259,326.813446 253.273560,326.961151 
	C250.149292,327.129425 247.008972,327.000000 243.000000,327.000000 
	C243.000000,324.221771 243.000000,321.816620 243.000000,318.923584 
M262.990173,312.315491 
	C262.565857,302.529877 257.775482,299.099182 248.379807,301.874481 
	C248.379807,308.428253 248.379807,314.982819 248.379807,321.469330 
	C258.259521,322.953247 260.417267,321.679657 262.990173,312.315491 
z"/>
<path fill="#2D4C74" opacity="1.000000" stroke="none" 
	d="
M287.002899,303.858521 
	C286.815338,306.656586 287.435699,308.125244 290.237793,308.023468 
	C294.199890,307.879547 298.171112,307.986969 302.297180,307.986969 
	C302.911377,303.851257 303.419739,300.058014 304.173035,296.314056 
	C304.216278,296.099243 306.256805,296.286255 307.974121,296.286255 
	C307.974121,305.800507 308.047058,315.062897 307.856934,324.319885 
	C307.838684,325.207764 306.182281,326.061981 305.286346,326.931793 
	C304.533997,326.085571 303.198425,325.282166 303.132568,324.385498 
	C302.878235,320.923798 303.029297,317.432281 303.029297,313.476868 
	C297.695282,313.476868 292.688690,313.476868 287.084106,313.476868 
	C287.084106,317.803925 287.084106,322.042816 287.084106,326.653290 
	C284.947968,326.774017 283.375549,326.862885 281.390808,326.975067 
	C281.390808,316.726501 281.390808,306.837372 281.390808,296.489197 
	C283.007568,296.489197 284.682220,296.489197 287.000977,296.489197 
	C287.000977,298.843903 287.000977,301.121552 287.002899,303.858521 
z"/>
<path fill="#2D4C74" opacity="1.000000" stroke="none" 
	d="
M216.895813,318.000183 
	C211.698456,317.275970 208.719330,318.683167 207.288818,323.828400 
	C206.801285,325.581970 203.466629,326.543915 201.432877,327.867554 
	C200.983856,327.367615 200.534851,326.867676 200.085831,326.367737 
	C204.077744,316.879395 207.920639,307.323883 212.148544,297.941864 
	C213.489532,294.966064 218.594543,295.127319 219.825439,298.010986 
	C223.833878,307.401733 227.653473,316.873047 231.545868,326.313721 
	C226.893341,328.424469 224.747009,326.284119 223.770889,322.386169 
	C222.899048,318.904694 220.896362,317.395325 216.895813,318.000183 
M212.777832,311.826141 
	C214.855942,312.334595 216.934052,312.843048 220.105545,313.618988 
	C218.390717,309.724670 217.235840,307.101959 215.707901,303.632050 
	C214.502197,306.882629 213.715851,309.002563 212.777832,311.826141 
z"/>
<path fill="#2D4C74" opacity="1.000000" stroke="none" 
	d="
M321.843201,319.774353 
	C321.396179,311.821655 321.054840,304.273712 320.695496,296.327332 
	C323.083923,296.213989 324.655151,296.139404 327.000702,296.028076 
	C327.000702,302.493500 326.980103,308.583832 327.007721,314.673981 
	C327.027069,318.928558 329.771698,322.774963 332.814758,322.405060 
	C337.138123,321.879486 338.972443,318.957092 338.989136,314.781219 
	C339.013000,308.818939 338.995209,302.856506 338.995209,296.466278 
	C341.045593,296.466278 342.720032,296.466278 345.329224,296.466278 
	C344.933563,304.016815 345.124908,311.475311 343.979858,318.722717 
	C343.053375,324.586914 338.894104,327.550964 333.833099,327.973999 
	C328.734802,328.400146 324.731201,325.774170 321.843201,319.774353 
z"/>
<path fill="#008037" opacity="1.000000" stroke="none" 
	d="
M198.844208,250.000244 
	C205.334503,249.372711 205.784012,254.489960 208.836700,258.564911 
	C202.411621,259.192535 197.124542,259.708984 191.428970,260.265350 
	C191.576370,258.283142 191.677063,256.929138 191.777740,255.575104 
	C191.452606,255.379425 191.127457,255.183762 190.802322,254.988083 
	C189.630905,256.517120 188.459503,258.046173 187.024887,259.918762 
	C185.790680,259.243042 184.430954,258.498627 182.736526,257.570953 
	C186.454025,251.073456 192.131546,249.926193 198.844208,250.000244 
z"/>
<path fill="#FFBD59" opacity="1.000000" stroke="none" 
	d="
M352.014038,359.851562 
	C353.342438,361.416626 355.461060,362.849060 355.753021,364.588135 
	C355.993225,366.018921 354.142242,367.865295 353.076721,369.431305 
	C352.155151,370.785706 350.040192,372.126068 350.178619,373.262360 
	C350.709747,377.621338 348.148621,379.387451 345.000275,380.898102 
	C340.738068,379.295044 336.997955,377.397308 340.128632,371.351379 
	C343.929504,368.317566 344.228912,367.199982 341.934509,365.604919 
	C341.310425,364.205902 340.635132,363.161499 339.968842,361.764282 
	C339.985199,360.941010 339.992584,360.470490 340.333313,360.000000 
	C341.111115,360.000000 341.555542,360.000000 342.118286,360.331055 
	C343.550690,362.592163 344.806793,364.566711 346.225708,366.416321 
	C346.525726,366.807404 347.421570,366.741425 348.391754,366.939880 
	C350.452454,366.459106 352.164276,365.924500 353.876099,365.389893 
	C352.917694,364.204376 351.959290,363.018860 351.137207,361.590393 
	C351.520355,360.848816 351.767181,360.350189 352.014038,359.851562 
M344.490173,377.913849 
	C345.642120,376.604706 346.794098,375.295563 347.946045,373.986420 
	C346.918762,373.335022 345.939453,372.292786 344.848724,372.158997 
	C344.013947,372.056610 342.216431,373.227142 342.275238,373.614899 
	C342.473877,374.924652 343.309021,376.137878 344.490173,377.913849 
z"/>
<path fill="#2D4C74" opacity="1.000000" stroke="none" 
	d="
M234.459457,364.209808 
	C232.574005,366.448578 230.998154,368.687622 229.168152,371.287750 
	C227.510239,368.915802 226.148376,366.967407 224.310440,364.337891 
	C224.046066,367.333954 223.853928,369.511353 223.643082,371.900818 
	C220.736847,370.176392 220.166931,365.333130 222.672256,356.612579 
	C224.860840,359.919312 227.049438,363.226013 229.279343,366.595123 
	C231.382278,363.274902 233.368027,360.139709 235.353790,357.004486 
	C235.716446,357.114502 236.079086,357.224487 236.441742,357.334503 
	C236.441742,362.028198 236.441742,366.721924 236.441742,371.415649 
	C236.109375,371.455841 235.776993,371.496033 235.444626,371.536224 
	C235.219437,369.094147 234.994247,366.652100 234.459457,364.209808 
z"/>
<path fill="#FFBD59" opacity="1.000000" stroke="none" 
	d="
M160.140106,359.166687 
	C163.460419,360.553741 167.602722,361.821899 165.779663,366.497559 
	C164.944580,368.639252 161.947968,369.938141 159.723038,371.793182 
	C160.618439,377.035553 158.422028,381.263641 154.122330,380.783081 
	C150.575027,380.386597 148.294632,377.905334 149.417740,373.406067 
	C150.248596,373.020905 150.681320,373.031860 151.063858,373.438019 
	C151.835495,375.166718 152.434296,376.782501 153.588882,377.694794 
	C154.050735,378.059692 155.737442,376.874390 156.866608,376.394714 
	C156.231033,374.968872 155.595459,373.542969 154.969086,371.659790 
	C154.985535,368.468292 154.992767,365.734161 155.352386,363.004761 
	C156.174530,363.020630 156.644272,363.031738 157.063858,363.438171 
	C157.977875,365.199341 158.814758,366.704102 160.018967,367.808167 
	C160.246338,368.016602 161.935074,366.631073 162.949493,365.981049 
	C161.966248,364.598480 160.983002,363.215912 160.042343,361.167053 
	C160.103302,360.056091 160.121704,359.611389 160.140106,359.166687 
z"/>
<path fill="#FFBD59" opacity="1.000000" stroke="none" 
	d="
M151.114029,373.042816 
	C150.681320,373.031860 150.248596,373.020905 149.491272,373.005127 
	C148.383194,372.121643 147.764465,370.834839 146.785782,370.439850 
	C143.702942,369.195587 142.123383,366.921967 143.154602,363.949097 
	C143.806152,362.070740 145.990570,360.742523 147.416641,359.105835 
	C148.043961,358.385864 148.495056,357.512268 149.421478,356.349731 
	C150.250092,355.980499 150.683426,355.970032 151.385651,356.050598 
	C152.116547,356.722198 152.578522,357.302765 153.029968,358.162476 
	C153.012955,358.627777 153.006470,358.813904 152.714844,359.083496 
	C151.447144,361.453583 151.482956,361.493042 155.000000,362.250000 
	C155.000000,362.500000 155.000000,363.000000 155.000000,363.000000 
	C154.992767,365.734161 154.985535,368.468292 154.624985,371.611389 
	C153.219101,372.361176 152.166565,372.701996 151.114029,373.042816 
M149.100555,367.388336 
	C149.608002,366.010406 150.115433,364.632507 150.622879,363.254578 
	C149.048904,363.178406 146.674545,362.412048 146.041016,363.146759 
	C143.445145,366.157227 146.458832,366.915222 149.100555,367.388336 
z"/>
<path fill="#2D4C74" opacity="1.000000" stroke="none" 
	d="
M200.129303,360.416016 
	C203.477432,356.885406 207.075668,355.839752 211.091583,358.101776 
	C214.302094,359.910156 215.641678,362.835968 214.687866,366.494659 
	C213.639496,370.516022 210.617401,372.686279 206.764938,372.623657 
	C203.025452,372.562836 199.560196,370.904816 199.138153,366.443604 
	C198.961334,364.574493 199.600388,362.628204 200.129303,360.416016 
M203.723877,360.865387 
	C201.405563,362.970154 200.030319,365.698669 202.777039,367.898773 
	C204.467163,369.252502 207.650940,369.850739 209.694992,369.233917 
	C210.906082,368.868408 212.057709,365.332489 211.740433,363.477997 
	C211.019363,359.263367 207.530380,359.738983 203.723877,360.865387 
z"/>
<path fill="#2D4C74" opacity="1.000000" stroke="none" 
	d="
M295.341370,365.233032 
	C296.362000,362.952301 297.133087,360.964050 298.037354,359.038300 
	C298.367188,358.335815 299.013763,357.782043 300.518066,355.919525 
	C303.141632,361.536835 305.414795,366.403931 307.687988,371.270996 
	C302.486145,368.239227 297.694305,367.384003 292.502136,371.510193 
	C293.382935,369.523529 294.263763,367.536865 295.341370,365.233032 
z"/>
<path fill="#FFBD59" opacity="1.000000" stroke="none" 
	d="
M348.042877,366.886017 
	C347.421570,366.741425 346.525726,366.807404 346.225708,366.416321 
	C344.806793,364.566711 343.550690,362.592163 342.032593,360.028259 
	C341.180817,358.943665 340.533081,358.492950 339.885315,358.042267 
	C340.206573,355.582001 339.772888,352.598755 341.028717,350.785889 
	C342.842896,348.167053 346.253479,348.458801 348.199066,350.844513 
	C349.476349,352.410675 349.317291,355.100189 350.005463,357.220398 
	C350.252716,357.982178 351.096832,358.550201 351.841278,359.529114 
	C351.767181,360.350189 351.520355,360.848816 350.763977,361.668365 
	C349.517273,363.621521 348.780060,365.253754 348.042877,366.886017 
M346.500183,356.929352 
	C346.824646,355.680023 347.149139,354.430695 347.473572,353.181305 
	C346.105194,352.877594 344.600189,352.102600 343.419189,352.445038 
	C342.698181,352.654083 342.475586,354.581879 342.029114,355.737701 
	C343.268188,356.171051 344.507263,356.604431 346.500183,356.929352 
z"/>
<path fill="#2D4C74" opacity="1.000000" stroke="none" 
	d="
M263.924988,357.594604 
	C266.736328,357.564087 269.222137,357.752869 271.707916,357.941681 
	C271.665131,358.404816 271.622345,358.867981 271.579559,359.331116 
	C269.053406,359.658722 266.527283,359.986328 264.001129,360.313934 
	C263.956940,360.940186 263.912750,361.566437 263.868561,362.192657 
	C265.435577,362.800690 267.237885,363.105652 268.510132,364.093353 
	C270.102814,365.329834 271.260040,367.127167 272.605255,368.682373 
	C270.443939,370.083801 268.432129,372.011414 266.063812,372.684326 
	C264.697937,373.072510 262.756042,371.433594 261.273590,369.727631 
	C264.094635,369.584808 266.915680,369.441956 269.736725,369.299133 
	C260.477325,361.097168 260.477325,361.097168 263.924988,357.594604 
z"/>
<path fill="#2D4C74" opacity="1.000000" stroke="none" 
	d="
M186.010529,366.005432 
	C180.768494,365.130096 182.726608,369.705841 180.592834,372.508179 
	C180.592834,366.852173 180.592834,362.217560 180.592834,357.582947 
	C180.874954,357.526306 181.157074,357.469666 181.439178,357.413025 
	C181.762756,359.356537 182.086334,361.300049 182.472336,363.618530 
	C184.653702,363.618530 186.894379,363.618530 189.468002,363.618530 
	C189.871841,361.477051 190.289001,359.264923 190.706177,357.052826 
	C191.221100,357.107422 191.736023,357.162018 192.250946,357.216614 
	C192.250946,362.054749 192.250946,366.892883 192.250946,372.033936 
	C188.562683,371.116180 191.684647,364.710907 186.010529,366.005432 
z"/>
<path fill="#2D4C74" opacity="1.000000" stroke="none" 
	d="
M245.012146,368.729980 
	C245.004395,364.795013 245.004395,361.326569 245.004395,357.759583 
	C248.553024,357.759583 251.680542,357.759583 254.808060,357.759583 
	C254.842194,358.294678 254.876312,358.829803 254.910446,359.364899 
	C253.467422,359.577728 251.976105,359.631622 250.595856,360.051056 
	C249.376175,360.421692 248.280289,361.199738 247.129761,361.797913 
	C248.309387,362.532684 249.431702,363.395721 250.688690,363.957306 
	C251.531693,364.333984 252.565643,364.283295 253.656281,365.506897 
	C252.229599,365.682526 250.738937,365.663300 249.399078,366.103302 
	C248.528320,366.389252 247.877304,367.344330 247.127869,367.999634 
	C247.878693,368.653961 248.567596,369.759949 249.392593,369.873016 
	C251.400299,370.148224 253.471176,369.962646 255.482651,370.396942 
	C250.312515,373.066467 246.495575,372.448212 245.012146,368.729980 
z"/>
<path fill="#FFBD59" opacity="1.000000" stroke="none" 
	d="
M151.116745,355.959534 
	C150.683426,355.970032 150.250092,355.980499 149.491714,355.995667 
	C147.736603,351.392883 150.824219,349.765045 154.276993,349.130615 
	C157.632721,348.514008 160.372192,352.338104 159.991318,356.455139 
	C159.913437,357.296967 159.749130,358.130798 159.882385,359.067505 
	C160.121704,359.611389 160.103302,360.056091 159.743317,361.298462 
	C158.639145,362.411713 157.876587,362.727295 157.114029,363.042847 
	C156.644272,363.031738 156.174530,363.020630 155.352386,363.004761 
	C155.000000,363.000000 155.000000,362.500000 154.930084,361.951569 
	C154.240112,360.602081 153.620056,359.801056 153.000000,359.000000 
	C153.006470,358.813904 153.012955,358.627777 153.415329,358.207275 
	C154.861588,356.702850 155.911987,355.432770 156.962387,354.162720 
	C156.002045,353.464661 154.388184,352.017273 154.188492,352.191406 
	C152.984756,353.241272 152.104950,354.662537 151.116745,355.959534 
z"/>
<path fill="#2D4C74" opacity="1.000000" stroke="none" 
	d="
M316.140259,370.596619 
	C314.532440,366.000763 313.002350,361.793823 311.472260,357.586853 
	C311.802979,357.309052 312.133728,357.031250 312.464478,356.753448 
	C314.132782,358.960327 315.801086,361.167206 317.669861,363.639282 
	C319.601654,361.284576 321.485901,358.987762 323.370178,356.690948 
	C323.626953,356.918518 323.883728,357.146057 324.140503,357.373627 
	C322.307434,361.983063 320.505798,366.605988 318.550140,371.162811 
	C318.450623,371.394623 317.025726,371.057648 316.140259,370.596619 
z"/>
<path fill="#008037" opacity="1.000000" stroke="none" 
	d="
M314.121155,252.785110 
	C314.384430,253.657272 314.501770,254.759460 314.389313,254.783417 
	C310.899628,255.527115 307.399475,256.259094 303.864899,256.711334 
	C303.377319,256.773712 302.243439,255.378387 302.229523,254.642410 
	C302.211975,253.713882 302.810913,252.510223 303.537354,251.875687 
	C307.123718,248.743027 310.535370,250.401932 314.121155,252.785110 
z"/>
<path fill="#2D4C74" opacity="1.000000" stroke="none" 
	d="
M283.620056,371.093201 
	C282.710175,367.987427 282.009033,364.524231 281.214569,360.599945 
	C280.211121,360.234406 278.649628,359.665558 277.088135,359.096741 
	C277.129425,358.678955 277.170746,358.261139 277.212036,357.843353 
	C281.025879,357.843353 284.839691,357.843353 288.653534,357.843353 
	C288.780457,358.201080 288.907410,358.558777 289.034332,358.916504 
	C287.596588,359.466217 286.158844,360.015930 283.828857,360.906769 
	C283.828857,363.869751 283.828857,367.302765 283.620056,371.093201 
z"/>
<path fill="#FFBD59" opacity="1.000000" stroke="none" 
	d="
M340.000000,360.000000 
	C339.992584,360.470490 339.985199,360.941010 339.589355,361.718567 
	C336.449188,362.541779 335.473053,364.211670 336.028809,367.257874 
	C335.996490,368.125580 335.978271,368.621460 335.960083,369.117310 
	C332.467102,367.337860 331.627838,363.211914 334.483551,361.157623 
	C335.862213,360.165802 337.615234,359.694397 339.589172,359.215210 
	C339.986420,359.628662 339.993225,359.814331 340.000000,360.000000 
z"/>
<path fill="#FFBD59" opacity="1.000000" stroke="none" 
	d="
M336.100433,369.421387 
	C335.978271,368.621460 335.996490,368.125580 336.374146,367.311523 
	C338.450134,366.648682 340.166718,366.304077 341.883301,365.959473 
	C344.228912,367.199982 343.929504,368.317566 340.222534,370.972290 
	C338.670807,370.603607 337.455811,370.164520 336.100433,369.421387 
z"/>
<path fill="#FFBD59" opacity="1.000000" stroke="none" 
	d="
M340.333313,360.000000 
	C339.993225,359.814331 339.986420,359.628662 339.968323,359.164520 
	C339.957092,358.886047 339.965546,358.460388 339.925415,358.251343 
	C340.533081,358.492950 341.180817,358.943665 341.914307,359.697205 
	C341.555542,360.000000 341.111115,360.000000 340.333313,360.000000 
z"/>
<path fill="#008037" opacity="1.000000" stroke="none" 
	d="
M368.942017,269.727570 
	C368.717041,269.483856 368.713013,269.249969 368.708984,269.016113 
	C368.854279,269.038116 369.108978,269.029724 369.125153,269.087677 
	C369.181946,269.291931 369.156921,269.518982 368.942017,269.727570 
z"/>
<path fill="#000000" opacity="1.000000" stroke="none" 
	d="
M250.080673,196.102539 
	C256.182343,196.775467 262.184601,196.964035 264.976562,203.987274 
	C265.438141,201.511536 265.899719,199.035782 266.373077,196.496841 
	C269.891663,196.116974 270.963165,198.347778 270.977661,201.532486 
	C271.004242,207.360916 271.254303,213.210251 270.803192,219.003525 
	C270.690277,220.454041 268.479309,222.119110 266.859436,222.997101 
	C263.285583,224.934174 259.647949,225.118118 255.629807,223.375473 
	C254.073349,222.700439 251.490372,224.903473 249.378250,224.895889 
	C244.438995,224.878189 239.449417,224.619659 234.596527,223.783585 
	C233.201294,223.543228 231.284897,221.060608 231.183929,219.503784 
	C230.785919,213.367828 230.775330,207.177490 231.124939,201.036026 
	C231.273987,198.417847 232.662064,195.870209 233.313965,193.831848 
	C234.817932,195.626617 236.633194,197.792908 239.495956,201.209213 
	C239.807388,197.264526 240.003616,194.779160 240.326752,190.686417 
	C241.433121,193.537704 242.015213,195.037796 242.409760,196.054581 
	C244.988754,196.054581 247.364853,196.054581 250.080673,196.102539 
z"/>
<path fill="#000000" opacity="1.000000" stroke="none" 
	d="
M219.815369,184.070526 
	C216.131927,188.121674 213.201416,191.777130 213.875732,197.831360 
	C214.082367,199.686600 209.498810,202.075378 206.172012,205.060410 
	C206.544250,201.954330 206.742218,200.302414 206.973068,198.376190 
	C208.065887,198.686493 209.249908,199.022675 209.544678,199.106369 
	C210.446930,195.878738 210.667191,192.298859 212.389267,189.723022 
	C214.080124,187.193863 217.297089,185.684982 219.815369,184.070526 
z"/>
<path fill="#000000" opacity="1.000000" stroke="none" 
	d="
M286.545532,188.512390 
	C288.115326,191.629700 289.685089,194.747025 291.490051,198.331329 
	C292.241547,198.164185 293.588104,197.864700 295.212189,197.503479 
	C295.822357,199.843491 296.387512,202.010834 297.014160,204.550537 
	C297.075623,204.922882 296.804596,205.234970 296.652588,205.383057 
	C296.223114,205.354752 295.963715,205.136520 295.665588,205.008118 
	C288.990082,202.133194 287.549347,195.948395 286.140717,189.304443 
	C286.242035,188.802765 286.545532,188.512390 286.545532,188.512390 
z"/>
<path fill="#000000" opacity="1.000000" stroke="none" 
	d="
M203.969208,225.250458 
	C203.915192,226.005249 203.851303,226.457535 203.787430,226.909836 
	C203.584579,226.917313 203.381714,226.924789 203.178864,226.932251 
	C203.241470,225.978561 203.304077,225.024857 203.366699,224.071152 
	C203.462280,224.078384 203.624252,224.056091 203.642715,224.097626 
	C203.765411,224.373444 203.857376,224.662918 203.969208,225.250458 
z"/>
<path fill="#000000" opacity="1.000000" stroke="none" 
	d="
M226.702057,178.279144 
	C226.435287,178.935852 225.889206,179.592850 225.343124,180.249832 
	C225.095383,179.993042 224.847641,179.736252 224.599899,179.479462 
	C225.207520,179.079453 225.815125,178.679428 226.702057,178.279144 
z"/>
<path fill="#000000" opacity="1.000000" stroke="none" 
	d="
M222.767548,181.984894 
	C222.326263,182.385254 221.922668,182.521393 221.512650,182.544693 
	C221.443954,182.548569 221.347504,182.063156 221.263870,181.803864 
	C221.776932,181.763504 222.289993,181.723160 222.767548,181.984894 
z"/>
<path fill="#000000" opacity="1.000000" stroke="none" 
	d="
M204.783447,229.316620 
	C205.424606,229.235733 205.872772,229.306366 206.320953,229.376999 
	C206.282883,229.547470 206.244827,229.717957 206.206772,229.888428 
	C205.667999,229.748337 205.129227,229.608246 204.783447,229.316620 
z"/>
<path fill="#000000" opacity="1.000000" stroke="none" 
	d="
M138.608643,206.655426 
	C138.792999,206.190094 139.128540,205.870407 139.464081,205.550705 
	C139.478989,205.969055 139.493912,206.387405 139.296722,206.936371 
	C139.084625,207.066986 138.759811,206.801041 138.608643,206.655426 
z"/>
<path fill="#000000" opacity="1.000000" stroke="none" 
	d="
M345.920837,190.064667 
	C346.311584,190.313950 346.539429,190.695816 346.767273,191.077698 
	C346.410156,191.013382 346.053040,190.949081 345.575195,190.686188 
	C345.454468,190.487610 345.757965,190.197235 345.920837,190.064667 
z"/>
<path fill="#000000" opacity="1.000000" stroke="none" 
	d="
M286.079163,188.935333 
	C285.688446,188.686035 285.460571,188.304169 285.232727,187.922302 
	C285.589844,187.986618 285.946960,188.050919 286.424805,188.313812 
	C286.545532,188.512390 286.242035,188.802765 286.079163,188.935333 
z"/>
<path fill="#000000" opacity="1.000000" stroke="none" 
	d="
M324.655457,158.391388 
	C324.190155,158.207062 323.870422,157.871521 323.550690,157.535980 
	C323.969055,157.521057 324.387390,157.506119 324.936340,157.703262 
	C325.066956,157.915344 324.801025,158.240173 324.655457,158.391388 
z"/>
<path fill="#000000" opacity="1.000000" stroke="none" 
	d="
M262.977661,312.728638 
	C260.417267,321.679657 258.259521,322.953247 248.379807,321.469330 
	C248.379807,314.982819 248.379807,308.428253 248.379807,301.874481 
	C257.775482,299.099182 262.565857,302.529877 262.977661,312.728638 
z"/>
<path fill="#000000" opacity="1.000000" stroke="none" 
	d="
M212.853668,311.474304 
	C213.715851,309.002563 214.502197,306.882629 215.707901,303.632050 
	C217.235840,307.101959 218.390717,309.724670 220.105545,313.618988 
	C216.934052,312.843048 214.855942,312.334595 212.853668,311.474304 
z"/>
<path fill="#000000" opacity="1.000000" stroke="none" 
	d="
M344.195496,377.650940 
	C343.309021,376.137878 342.473877,374.924652 342.275238,373.614899 
	C342.216431,373.227142 344.013947,372.056610 344.848724,372.158997 
	C345.939453,372.292786 346.918762,373.335022 347.946045,373.986420 
	C346.794098,375.295563 345.642120,376.604706 344.195496,377.650940 
z"/>
<path fill="#000000" opacity="1.000000" stroke="none" 
	d="
M341.934509,365.604889 
	C340.166718,366.304077 338.450134,366.648682 336.388245,366.939636 
	C335.473053,364.211670 336.449188,362.541779 339.580383,362.071350 
	C340.635132,363.161499 341.310425,364.205902 341.934509,365.604889 
z"/>
<path fill="#000000" opacity="1.000000" stroke="none" 
	d="
M348.391754,366.939880 
	C348.780060,365.253754 349.517273,363.621521 350.627686,361.911316 
	C351.959290,363.018860 352.917694,364.204376 353.876099,365.389893 
	C352.164276,365.924500 350.452454,366.459106 348.391754,366.939880 
z"/>
<path fill="#000000" opacity="1.000000" stroke="none" 
	d="
M157.063858,363.438171 
	C157.876587,362.727295 158.639145,362.411713 159.700745,361.964752 
	C160.983002,363.215912 161.966248,364.598480 162.949493,365.981049 
	C161.935074,366.631073 160.246338,368.016602 160.018967,367.808167 
	C158.814758,366.704102 157.977875,365.199341 157.063858,363.438171 
z"/>
<path fill="#000000" opacity="1.000000" stroke="none" 
	d="
M151.063858,373.438019 
	C152.166565,372.701996 153.219101,372.361176 154.615753,372.068726 
	C155.595459,373.542969 156.231033,374.968872 156.866608,376.394714 
	C155.737442,376.874390 154.050735,378.059692 153.588882,377.694794 
	C152.434296,376.782501 151.835495,375.166718 151.063858,373.438019 
z"/>
<path fill="#000000" opacity="1.000000" stroke="none" 
	d="
M148.805008,367.651367 
	C146.458832,366.915222 143.445145,366.157227 146.041016,363.146759 
	C146.674545,362.412048 149.048904,363.178406 150.622879,363.254578 
	C150.115433,364.632507 149.608002,366.010406 148.805008,367.651367 
z"/>
<path fill="#000000" opacity="1.000000" stroke="none" 
	d="
M151.385651,356.050598 
	C152.104950,354.662537 152.984756,353.241272 154.188492,352.191406 
	C154.388184,352.017273 156.002045,353.464661 156.962387,354.162720 
	C155.911987,355.432770 154.861588,356.702850 153.425842,357.928101 
	C152.578522,357.302765 152.116547,356.722198 151.385651,356.050598 
z"/>
<path fill="#FFBD59" opacity="1.000000" stroke="none" 
	d="
M152.714844,359.083496 
	C153.620056,359.801056 154.240112,360.602081 154.930084,361.701569 
	C151.482956,361.493042 151.447144,361.453583 152.714844,359.083496 
z"/>
<path fill="#000000" opacity="1.000000" stroke="none" 
	d="
M204.027130,360.614075 
	C207.530380,359.738983 211.019363,359.263367 211.740433,363.477997 
	C212.057709,365.332489 210.906082,368.868408 209.694992,369.233917 
	C207.650940,369.850739 204.467163,369.252502 202.777039,367.898773 
	C200.030319,365.698669 201.405563,362.970154 204.027130,360.614075 
z"/>
<path fill="#000000" opacity="1.000000" stroke="none" 
	d="
M346.123260,356.983582 
	C344.507263,356.604431 343.268188,356.171051 342.029114,355.737701 
	C342.475586,354.581879 342.698181,352.654083 343.419189,352.445038 
	C344.600189,352.102600 346.105194,352.877594 347.473572,353.181335 
	C347.149139,354.430695 346.824646,355.680023 346.123260,356.983582 
z"/>
</svg>