<svg xmlns="http://www.w3.org/2000/svg" width={20} height={20} enable-background="new 0 0 24 24" viewBox="0 0 24 24"><path d="M19.777,6.387h-2.212c-0.214,0-0.406-0.136-0.48-0.337l-0.578-1.592c-0.244-0.675-0.891-1.127-1.608-1.127H9.102
	c-0.718,0-1.364,0.452-1.607,1.126L6.915,6.049c-0.074,0.202-0.267,0.338-0.48,0.338H4.223C2.666,6.387,1.4,7.652,1.4,9.208v8.64
	c0,1.556,1.266,2.821,2.822,2.821h15.555c1.557,0,2.822-1.266,2.822-2.821v-8.64C22.6,7.652,21.334,6.387,19.777,6.387z
	 M21.4,17.848c0,0.895-0.729,1.622-1.623,1.622H4.223c-0.895,0-1.623-0.728-1.623-1.622v-8.64c0-0.895,0.729-1.622,1.623-1.622
	h2.212c0.716,0,1.361-0.452,1.607-1.126l0.58-1.594c0.072-0.2,0.266-0.336,0.479-0.336h5.797c0.214,0,0.407,0.136,0.48,0.337
	l0.579,1.594c0.246,0.673,0.892,1.125,1.607,1.125h2.212c0.895,0,1.623,0.728,1.623,1.622V17.848z M12,9.351
	c-2.261,0-4.1,1.839-4.1,4.1s1.839,4.1,4.1,4.1s4.1-1.839,4.1-4.1S14.261,9.351,12,9.351z M12,16.351c-1.599,0-2.9-1.302-2.9-2.9
	s1.302-2.9,2.9-2.9s2.9,1.302,2.9,2.9S13.599,16.351,12,16.351z"/></svg>